<mxfile host="app.diagrams.net" modified="2024-03-22T11:58:02.373Z" agent="Mozilla/5.0 (Windows NT 10.0; Win64; x64) AppleWebKit/537.36 (KHTML, like Gecko) Chrome/122.0.0.0 Safari/537.36 Edg/122.0.0.0" etag="NwM-46F0swf3RDaNg8RA" version="24.0.7" type="github">
  <diagram name="第 1 页" id="NoRNH7uwiVo1Yr44ymqn">
    <mxGraphModel dx="868" dy="481" grid="1" gridSize="10" guides="1" tooltips="1" connect="1" arrows="1" fold="1" page="1" pageScale="1" pageWidth="827" pageHeight="1169" math="0" shadow="0">
      <root>
        <mxCell id="0" />
        <mxCell id="1" parent="0" />
        <mxCell id="78NADJNt6n4GUf8spoT7-1" style="edgeStyle=orthogonalEdgeStyle;rounded=0;orthogonalLoop=1;jettySize=auto;html=1;exitX=0.5;exitY=1;exitDx=0;exitDy=0;entryX=0.5;entryY=0;entryDx=0;entryDy=0;" edge="1" parent="1" source="78NADJNt6n4GUf8spoT7-2" target="78NADJNt6n4GUf8spoT7-4">
          <mxGeometry relative="1" as="geometry" />
        </mxCell>
        <mxCell id="78NADJNt6n4GUf8spoT7-2" value="开始" style="rounded=0;whiteSpace=wrap;html=1;" vertex="1" parent="1">
          <mxGeometry x="350" y="380" width="60" height="30" as="geometry" />
        </mxCell>
        <mxCell id="78NADJNt6n4GUf8spoT7-13" value="" style="edgeStyle=orthogonalEdgeStyle;rounded=0;orthogonalLoop=1;jettySize=auto;html=1;" edge="1" parent="1" source="78NADJNt6n4GUf8spoT7-4" target="78NADJNt6n4GUf8spoT7-9">
          <mxGeometry relative="1" as="geometry" />
        </mxCell>
        <mxCell id="78NADJNt6n4GUf8spoT7-4" value="设定连接权初值" style="rounded=0;whiteSpace=wrap;html=1;" vertex="1" parent="1">
          <mxGeometry x="320" y="440" width="120" height="30" as="geometry" />
        </mxCell>
        <mxCell id="78NADJNt6n4GUf8spoT7-7" style="edgeStyle=orthogonalEdgeStyle;rounded=0;orthogonalLoop=1;jettySize=auto;html=1;exitX=1;exitY=0.5;exitDx=0;exitDy=0;" edge="1" parent="1" source="78NADJNt6n4GUf8spoT7-9" target="78NADJNt6n4GUf8spoT7-11">
          <mxGeometry relative="1" as="geometry" />
        </mxCell>
        <mxCell id="78NADJNt6n4GUf8spoT7-8" style="edgeStyle=orthogonalEdgeStyle;rounded=0;orthogonalLoop=1;jettySize=auto;html=1;exitX=0.5;exitY=1;exitDx=0;exitDy=0;entryX=0.5;entryY=0;entryDx=0;entryDy=0;" edge="1" parent="1" source="78NADJNt6n4GUf8spoT7-9" target="78NADJNt6n4GUf8spoT7-10">
          <mxGeometry relative="1" as="geometry" />
        </mxCell>
        <mxCell id="78NADJNt6n4GUf8spoT7-9" value="是否满足要求？" style="rhombus;whiteSpace=wrap;html=1;" vertex="1" parent="1">
          <mxGeometry x="322.5" y="504" width="115" height="60" as="geometry" />
        </mxCell>
        <mxCell id="78NADJNt6n4GUf8spoT7-10" value="调整连接权初值" style="rounded=0;whiteSpace=wrap;html=1;" vertex="1" parent="1">
          <mxGeometry x="320" y="600" width="120" height="30" as="geometry" />
        </mxCell>
        <mxCell id="78NADJNt6n4GUf8spoT7-11" value="输出" style="rounded=0;whiteSpace=wrap;html=1;" vertex="1" parent="1">
          <mxGeometry x="480" y="600" width="60" height="30" as="geometry" />
        </mxCell>
        <mxCell id="78NADJNt6n4GUf8spoT7-12" value="" style="endArrow=classic;html=1;rounded=0;exitX=0;exitY=0.5;exitDx=0;exitDy=0;" edge="1" parent="1" source="78NADJNt6n4GUf8spoT7-10">
          <mxGeometry width="50" height="50" relative="1" as="geometry">
            <mxPoint x="320" y="610" as="sourcePoint" />
            <mxPoint x="380" y="485" as="targetPoint" />
            <Array as="points">
              <mxPoint x="280" y="615" />
              <mxPoint x="280" y="555" />
              <mxPoint x="280" y="485" />
            </Array>
          </mxGeometry>
        </mxCell>
        <mxCell id="78NADJNt6n4GUf8spoT7-14" value="否" style="text;html=1;align=center;verticalAlign=middle;whiteSpace=wrap;rounded=0;" vertex="1" parent="1">
          <mxGeometry x="360" y="564" width="60" height="30" as="geometry" />
        </mxCell>
        <mxCell id="78NADJNt6n4GUf8spoT7-15" value="是" style="text;html=1;align=center;verticalAlign=middle;whiteSpace=wrap;rounded=0;" vertex="1" parent="1">
          <mxGeometry x="445.5" y="527" width="60" height="30" as="geometry" />
        </mxCell>
      </root>
    </mxGraphModel>
  </diagram>
</mxfile>
